<svg viewBox="0 0 355 380" xmlns="http://www.w3.org/2000/svg" xmlns:xlink="http://www.w3.org/1999/xlink">
  <defs>
    <path id="a" d="M0.485998258 0.646L130.399 0.646 130.399 187.720176 0.485998258 187.720176z"/>
    <filter id="b" width="212.3%" height="292.5%" x="-56.2%" y="-96.3%" filterUnits="objectBoundingBox">
      <feGaussianBlur in="SourceGraphic" stdDeviation="6"/>
    </filter>
    <path id="c" d="M0,15.7375556 C0,28.5755556 9.32940741,44.3317778 20.7323704,50.7515556 L20.7323704,50.7515556 C32.1337407,57.1713333 41.4631481,51.9197778 41.4631481,39.0817778 L41.4631481,39.0817778 C41.4631481,26.2437778 32.1337407,10.4875556 20.7323704,4.06777778 L20.7323704,4.06777778 C17.4277407,2.20888889 14.2998889,1.32844444 11.5208148,1.32844444 L11.5208148,1.32844444 C4.7077037,1.33 0,6.61888889 0,15.7375556"/>
    <path id="e" d="M0,14.4931111 C0,27.3311111 9.32940741,43.0873333 20.7323704,49.5071111 L20.7323704,49.5071111 C32.1337407,55.9268889 41.4631481,50.6753333 41.4631481,37.8373333 L41.4631481,37.8373333 C41.4631481,24.9993333 32.1337407,9.24311111 20.7323704,2.82333333 L20.7323704,2.82333333 C17.4277407,0.964444444 14.2998889,0.084 11.5208148,0.084 L11.5208148,0.084 C4.7077037,0.0855555556 0,5.37444444 0,14.4931111"/>
    <path id="f" d="M0,15.7375556 C0,28.5755556 9.32940741,44.3317778 20.7323704,50.7515556 L20.7323704,50.7515556 C32.1337407,57.1713333 41.4631481,51.9197778 41.4631481,39.0817778 L41.4631481,39.0817778 C41.4631481,26.2437778 32.1337407,10.4875556 20.7323704,4.06777778 L20.7323704,4.06777778 C17.4277407,2.20888889 14.2998889,1.32844444 11.5208148,1.32844444 L11.5208148,1.32844444 C4.7077037,1.33 0,6.61888889 0,15.7375556 L0,15.7375556 Z"/>
    <path id="h" d="M20.7323704,49.5071111 C32.1337407,55.9268889 41.4631481,50.6753333 41.4631481,37.8373333 C41.4631481,24.9993333 32.1337407,9.24311111 20.7323704,2.82333333 C17.4277407,0.964444444 14.2998889,0.084 11.5208148,0.084 C4.7077037,0.0855555556 0,5.37444444 0,14.4931111 C0,27.3311111 9.32940741,43.0873333 20.7323704,49.5071111 Z"/>
  </defs>
  <g fill="none" fill-rule="evenodd">
    <path fill="#F6F6F6" fill-rule="nonzero" d="M255.076181,83.6062067 C97.1828686,97.561028 248.852576,187.659196 97.9946895,280.480025 C-52.8631966,373.300854 287.701321,447.178941 323.063668,370.482764 C358.426016,293.786587 206.637533,224.082416 354.604562,248.052427 C502.571591,272.022437 412.969493,69.6513854 255.076181,83.6062067 Z" transform="rotate(-42 122.540793 319.78398618)"/>
    <g id="ill-41" data-el-parallax="-0.03" data-y="5">
      <path fill="#8379A8" fill-rule="nonzero" d="M420.899495 299.899495H434.899495V313.899495H420.899495z" transform="rotate(-45 311.55887457 376.08935784)"/>
    </g>
    <g id="ill-42" data-el-parallax="-0.02" data-y="0">
      <path fill="#DDE3E9" fill-rule="nonzero" d="M101.899495 367.899495H115.899495V381.899495H101.899495z" transform="rotate(-45 -7.44112543 444.08935784)"/>
    </g>
    <g id="ill-40" data-el-parallax="-0.06" data-y="20">
      <path fill="#00CAC5" fill-rule="nonzero" d="M85.8994949 123.899495H99.8994949V137.899495H85.8994949z" transform="rotate(-45 -23.44112543 200.08935784)"/>
    </g>
    <path fill="#342E4F" d="M101.347596,11.7986716 L99.6693054,116.249005 C99.639066,118.112439 100.609753,119.848475 102.210429,120.794852 L216.496491,188.361746 C219.907504,190.378865 224.218645,187.954278 224.282148,183.982729 L225.942295,80.6577349 C225.971526,78.8084569 225.014951,77.0825315 223.433426,76.1310987 L109.165508,7.43886486 C105.755504,5.3883806 101.411099,7.81094484 101.347596,11.7986716" transform="translate(36 53)"/>
    <path fill="#5B5380" d="M2.6375,171.7476 L95.2045,117.7896 C96.8565,116.8276 98.8975,116.8266 100.5505,117.7876 L218.5445,186.3796 C222.0665,188.4266 222.0695,193.5126 218.5505,195.5636 L126.9805,248.9386 C125.3415,249.8946 123.3165,249.9036 121.6685,248.9616 L2.6765,180.9506 C-0.8745,178.9206 -0.8965,173.8076 2.6375,171.7476" transform="translate(36 53)"/>
    <path fill="#A197C5" d="M51.8206,190.6006 L81.7546,173.1526 C82.2886,172.8406 82.9486,172.8406 83.4836,173.1516 L121.6396,195.3326 C122.7786,195.9946 122.7786,197.6386 121.6406,198.3026 L92.0296,215.5626 C91.4996,215.8716 90.8446,215.8736 90.3126,215.5696 L51.8336,193.5766 C50.6856,192.9196 50.6776,191.2666 51.8206,190.6006" transform="translate(36 53)"/>
    <path fill="#342E4F" d="M64.9141 143.397L64.9141 143.397C64.2026615 143.811659 63.962074 144.724541 64.3767328 145.435979 64.5075172 145.660369 64.6946471 145.846704 64.9195915 145.976532L171.30322 207.376426C172.707993 208.187199 174.438443 208.187608 175.8436 207.3775L175.8436 207.3775C176.566449 206.960759 176.814599 206.036939 176.397859 205.31409 176.265058 205.083743 176.073818 204.892524 175.843457 204.759748L69.3623396 143.386235C67.9848416 142.592274 66.2877389 142.596381 64.9141 143.397zM76.0615 136.482L76.0615 136.482C75.3500618 136.896659 75.1094744 137.80954 75.524133 138.520979 75.6549175 138.745368 75.8420475 138.931703 76.066992 139.061531L182.516631 200.499474C183.915908 201.307074 185.640661 201.302886 187.036 200.4885L187.036 200.4885C187.758824 200.066626 188.002792 199.138665 187.580918 198.415841 187.447862 198.187868 187.257566 197.998603 187.028872 197.866789L80.5097384 136.471237C79.1322414 135.677274 77.4351387 135.681381 76.0615 136.482z" transform="translate(36 53)"/>
    <path fill="#FF5518" d="M176.096689,194.184273 L176.096689,194.184273 C175.375016,194.527586 175.068294,195.390929 175.411608,196.112603 C175.537734,196.377731 175.741526,196.59822 175.995922,196.744792 L182.515652,200.501171 C183.915698,201.307815 185.640498,201.302981 187.036,200.4885 L187.036,200.4885 C187.758856,200.066607 188.002835,199.138604 187.580942,198.415748 C187.44789,198.187782 187.257604,197.99852 187.028923,197.866701 L180.974512,194.376742 C179.47905,193.51471 177.655425,193.442753 176.096689,194.184273 Z" transform="translate(36 53)"/>
    <path fill="#342E4F" d="M87.3551,129.9178 L87.3551,129.9178 C86.6435185,130.326621 86.3980831,131.234887 86.8069045,131.946469 C86.9374139,132.173629 87.125661,132.362248 87.352564,132.493204 L193.854802,193.960715 C195.260242,194.771861 196.991416,194.772656 198.3976,193.9628 L198.3976,193.9628 C199.120547,193.546437 199.369083,192.622844 198.95272,191.899896 C198.819924,191.669317 198.628577,191.477906 198.398043,191.345031 L91.8283115,129.920908 C90.4442387,129.123163 88.74028,129.121979 87.3551,129.9178 Z" transform="translate(36 53)"/>
    <g id="ill-53">
      <path fill="#FFF" d="M188.094967,146.043055 L186.669202,235.031383 C186.643513,236.618969 187.468144,238.098016 188.827973,238.904299 L285.917862,296.469122 C288.815633,298.187642 292.478094,296.121972 292.532041,292.73834 L293.942393,204.708764 C293.967226,203.133239 293.154583,201.662806 291.811024,200.852216 L194.736549,144.328639 C191.839634,142.581693 188.148915,144.645639 188.094967,148.043055" transform="translate(-83 -62)"/>
      <path fill="#00CAC5" d="M174.974275,188.842788 C174.956728,189.923233 175.519997,190.929811 176.448836,191.478534 L242.756097,228.539016 C244.735436,229.70857 247.2371,228.302761 247.273949,226 L247.273949,216.523956 C247.290912,215.451718 246.735831,214.451002 245.818106,213.899348 L179.510845,175.431733 C177.532091,174.242833 175.011124,175.64747 174.974275,177.959611 L174.974275,188.842788 Z" transform="translate(-83 -62)"/>
      <path fill="#FFB461" d="M272.000398,242.842788 C271.982851,243.923233 272.54612,244.929811 273.474959,245.478534 L297.319188,258.97075 C299.298527,260.140304 301.800191,258.734494 301.83704,256.431733 L301.83704,245.478534 C301.854003,244.406297 301.298922,243.405581 300.381197,242.853926 L276.536968,229.431733 C274.558214,228.242833 272.037248,229.64747 272.000398,231.959611 L272.000398,242.842788 Z" transform="translate(-83 -62)"/>
    </g>
    <g fill="#00CAC5">
      <path d="M2.01931571,1.38592402 L2.01931571,1.38592402 C0.215945639,2.28715446 -0.515383027,4.47966637 0.385847412,6.28303643 C0.714648138,6.94096959 1.23453408,7.48422988 1.87738041,7.84162958 L18.8563478,17.2813314 C22.4100432,19.2570596 26.7526368,19.1645363 30.2189557,17.0392396 L30.2189557,17.0392396 C32.0263154,15.931097 32.5931428,13.5676154 31.4850003,11.7602557 C31.1388204,11.195643 30.6524485,10.7302009 30.0731643,10.4091747 L14.2615084,1.64671447 C10.4731925,-0.452684065 5.89359955,-0.550241274 2.01931571,1.38592402 Z" transform="translate(171 242)"/>
      <path d="M2.01931571,1.38592402 L2.01931571,1.38592402 C0.215945639,2.28715446 -0.515383027,4.47966637 0.385847412,6.28303643 C0.714648138,6.94096959 1.23453408,7.48422988 1.87738041,7.84162958 L18.8563478,17.2813314 C22.4100432,19.2570596 26.7526368,19.1645363 30.2189557,17.0392396 L30.2189557,17.0392396 C32.0263154,15.931097 32.5931428,13.5676154 31.4850003,11.7602557 C31.1388204,11.195643 30.6524485,10.7302009 30.0731643,10.4091747 L14.2615084,1.64671447 C10.4731925,-0.452684065 5.89359955,-0.550241274 2.01931571,1.38592402 Z" filter="url(#b)" transform="translate(171 242)"/>
    </g>
    <path fill="#342E4F" d="M247.217521,346.725363 L247.217521,346.725363 C245.515441,347.553185 244.806716,349.604074 245.634537,351.306154 C245.962685,351.980858 246.503179,352.529234 247.173062,352.867115 L253.778918,356.199036 L253.778918,359.501483 L260.347191,363.629374 C263.999636,365.924786 268.695104,365.703131 272.115073,363.073856 L272.115073,363.073856 C274.16877,361.494971 274.553682,358.550182 272.974798,356.496484 C272.57965,355.982505 272.082241,355.556023 271.513969,355.24396 L266.424542,352.449135 L266.424542,349.263507 L259.798611,346.424321 C255.760011,344.693797 251.16873,344.803657 247.217521,346.725363 Z" transform="translate(-83 -62)"/>
    <g>
      <path fill="#CFD7DD" d="M0.000159259259,15.7375556 C0.000159259259,2.89955556 9.32956667,-2.35044444 20.7325296,4.06777778 C32.1339,10.4875556 41.4633074,26.2437778 41.4633074,39.0817778 C41.4633074,51.9197778 32.1339,57.1713333 20.7325296,50.7515556 C9.32956667,44.3317778 0.000159259259,28.5755556 0.000159259259,15.7375556" transform="translate(266 51.226956)"/>
      <g transform="translate(266 51.226956)">
        <mask id="d" fill="#fff">
          <use xlink:href="#c"/>
        </mask>
        <path fill="#FFF" d="M21.2001148,35.3537333 C26.5241519,38.3512889 30.8798926,35.8997333 30.8798926,29.9046222 C30.8798926,23.9126222 26.5241519,16.5548444 21.2001148,13.5572889 C15.8760778,10.5612889 11.520337,13.0128444 11.520337,19.0064 C11.520337,24.9999556 15.8760778,32.3561778 21.2001148,35.3537333" mask="url(#d)"/>
      </g>
      <g transform="translate(266 51.226956)">
        <mask id="g" fill="#fff">
          <use xlink:href="#f"/>
        </mask>
        <path fill="#FFF" d="M25.1886037 33.3242L25.1886037 41.9964222 18.4057519 38.0888667 18.4057519 29.4166444z" mask="url(#g)"/>
      </g>
      <g transform="translate(266 52.4714)">
        <mask id="i" fill="#fff">
          <use xlink:href="#h"/>
        </mask>
        <path fill="#BCC5CF" d="M5.60927037,40.6535111 C5.91186296,39.7295111 6.31797407,38.7946222 6.84352963,37.9344 C7.48375185,36.8937333 8.30393704,35.9650667 9.33912222,35.3117333 C10.8727889,34.3441778 12.8507889,34.2461778 14.6297148,34.3021778 C14.8463074,34.3099556 16.6602704,34.5712889 16.6602704,34.5712889 C16.7733444,34.5961778 16.8896037,34.6179556 17.0010852,34.6490667 C17.4071963,34.7579556 17.806937,34.8948444 18.1907519,35.0628444 L24.4321222,38.3792889 C31.6210852,42.1997333 36.1743074,49.4781778 36.3765667,57.4690667 L36.5421963,64.0879556 L4.37501111,46.9395111 C4.61708519,44.9219556 4.97541852,42.5870667 5.60927037,40.6535111" mask="url(#i)"/>
      </g>
    </g>
  </g>
</svg> 
