<svg viewBox="0 0 437 302" xmlns="http://www.w3.org/2000/svg">
  <defs>
    <filter id="a" width="182.9%" height="241%" x="-41.5%" y="-70.5%" filterUnits="objectBoundingBox">
      <feGaussianBlur in="SourceGraphic" stdDeviation="5"/>
    </filter>
  </defs>
  <g fill="none" fill-rule="evenodd" transform="translate(-36 -81)">
    <path fill="#F6F6F6" fill-rule="nonzero" d="M296.074803,107.086666 C171.668361,210.309241 31.4082719,169.940917 51.2152794,299.835163 C71.0222868,429.729409 341.857426,394.256866 383.542571,317.560689 C425.227717,240.864512 294.709791,240.333476 401.63231,208.525855 C508.55483,176.718234 420.481245,3.86409066 296.074803,107.086666 Z" transform="rotate(27 249.460535 230.450147)"/>
    <g id="ill-55">
      <path fill="#E4E4E4" d="M226.305468,257.433309 L191.497955,238.402631 C190.585026,237.903496 189.47866,237.913031 188.57447,238.427827 L113.500269,281.170954 C112.060426,281.990721 111.557756,283.822497 112.377523,285.26234 C112.652765,285.745775 113.057004,286.143159 113.545077,286.410092 L148.715293,305.645118 C149.632162,306.146565 150.743906,306.134754 151.649915,305.61394 L226.361412,262.666465 C227.797846,261.84074 228.292923,260.006897 227.467197,258.570463 C227.191993,258.091716 226.789989,257.698216 226.305468,257.433309 Z"/>
    </g>
    <g id="ill-44" data-el-parallax="-0.02" data-y="0">
      <path fill="#8379A8" fill-rule="nonzero" d="M403.899495 260.79899H417.899495V274.79899H403.899495z" transform="rotate(-45 410.899495 267.79899)"/>
    </g>
    <g id="ill-45" data-el-parallax="-0.05" data-y="20">
      <path fill="#DDE3E9" fill-rule="nonzero" d="M84.8994949 328.79899H98.8994949V342.79899H84.8994949z" transform="rotate(-45 91.899495 335.79899)"/>
    </g>
    <g id="ill-43" data-el-parallax="-0.03" data-y="25">
      <path fill="#00CAC5" fill-rule="nonzero" d="M68.8994949 84.7989899H82.8994949V98.7989899H68.8994949z" transform="rotate(-45 75.899495 91.79899)"/>
    </g>
    <path fill="#5B5380" d="M288.559644,118.766 C288.736351,118.1435 288.713793,117.551 288.559644,116.9885 L288.559644,113.57225 L268.93004,103.68725 C225.734384,78.806 110.017098,12.14225 103.305962,8.27975 C95.0420526,3.52475 86.770624,8.28725 86.770624,8.28725 C86.770624,8.28725 29.8143188,41.0885 10.0719227,52.4585 L0.548500649,56.576 L0.548500649,59.996 C0.12740974,63.0335 4.16537078,65.36975 4.16537078,65.36975 C4.16537078,65.36975 177.639786,165.2885 185.899936,170.03225 C188.512955,171.5285 191.122215,172.07975 193.472053,172.1285 C198.558981,172.2485 202.423994,170.03225 202.423994,170.03225 L276.772858,127.21475 L285.036767,122.456 C287.228695,121.196 288.232546,119.936 288.559644,118.76975 L288.559644,118.766 Z" transform="translate(106 168)"/>
    <path fill="#5B5380" d="M276.77361,121.9095 L202.424746,164.727 C202.424746,164.727 194.160837,169.47075 185.900688,164.727 C177.640538,159.98325 4.16612273,60.0645 4.16612273,60.0645 C4.16612273,60.0645 -4.08650714,55.317 4.16612273,50.55825 C12.4225123,45.79575 86.771376,2.982 86.771376,2.982 C86.771376,2.982 95.0428045,-1.7805 103.302954,2.9745 C111.566863,7.73325 285.01496,107.64825 285.01496,107.64825 C285.01496,107.64825 293.297668,112.39575 285.033759,117.15075 L276.77361,121.9095 Z" transform="translate(106 168.386)"/>
    <path d="M249.650324,95.7648416 L104.799363,12.2631875 C103.872634,11.7289599 102.731558,11.7285924 101.804485,12.262223 L25.1932218,56.3602983 C23.757262,57.1868486 23.263238,59.0209754 24.0897883,60.4569352 C24.3539998,60.915948 24.7350181,61.2968343 25.1941222,61.5608868 L167.965798,143.675636 C168.892271,144.208495 170.03227,144.208214 170.958481,143.674899 L249.649677,98.3642852 C250.367596,97.9509051 250.614474,97.0338056 250.201094,96.3158861 C250.069244,96.0869001 249.879244,95.8968063 249.650324,95.7648416 Z" transform="translate(106 168)"/>
    <path fill="#342E4F" d="M53.599576,31.759 C53.599576,32.7115 55.4493682,33.484 57.7315305,33.484 C60.0136929,33.484 61.8597253,32.7115 61.8597253,31.759 C61.8597253,30.80275 60.0136929,30.03025 57.7315305,30.03025 C55.4493682,30.03025 53.599576,30.80275 53.599576,31.759" transform="translate(106 168)"/>
    <g id="ill-54">
      <path fill="#00CAC5" d="M310.360529,160.816796 L275.463661,143.318867 C274.567423,142.869477 273.505934,142.897503 272.634658,143.39356 L197.500269,186.170954 C196.060426,186.990721 195.557756,188.822497 196.377523,190.26234 C196.652765,190.745775 197.057004,191.143159 197.545077,191.410092 L232.690176,210.631381 C233.62061,211.140248 234.750574,211.120071 235.662249,210.578313 L310.548407,166.077558 C311.972752,165.231148 312.44126,163.390338 311.59485,161.965994 C311.301761,161.472782 310.873392,161.073955 310.360529,160.816796 Z"/>
      <path fill="#FFF" d="M226.305468,237.433309 L191.497955,218.402631 C190.585026,217.903496 189.47866,217.913031 188.57447,218.427827 L113.500269,261.170954 C112.060426,261.990721 111.557756,263.822497 112.377523,265.26234 C112.652765,265.745775 113.057004,266.143159 113.545077,266.410092 L148.715293,285.645118 C149.632162,286.146565 150.743906,286.134754 151.649915,285.61394 L226.361412,242.666465 C227.797846,241.84074 228.292923,240.006897 227.467197,238.570463 C227.191993,238.091716 226.789989,237.698216 226.305468,237.433309 Z"/>
      <ellipse cx="280.5" cy="161.5" fill="#FFF" fill-rule="nonzero" rx="9.5" ry="6.5"/>
    </g>
    <path fill="#FFB461" d="M326.140461,255.536832 L326.140461,255.536832 C317.534288,250.902528 307.134215,251.092226 298.702771,256.037299 L262.589931,277.21761 C258.322382,279.720543 256.891877,285.209103 259.394811,289.476653 C260.194586,290.840286 261.340981,291.967986 262.717578,292.745235 L262.717578,292.745235 C271.108198,297.482716 281.385954,297.396947 289.696341,292.520096 L326.423829,270.967012 C330.640747,268.492365 332.053137,263.067779 329.578489,258.850861 C328.757661,257.452131 327.568386,256.30575 326.140461,255.536832 Z"/>
    <g fill="#FF5518">
      <path d="M33.5976169,1.8976568 C31.5222403,0.701406802 28.9618571,0.701406802 26.8864805,1.8939068 L1.29476094,16.4764852 C-0.430959843,17.4702352 -0.430959843,19.9527352 1.2910012,20.9464852 L1.80232587,21.2389852 C4.19728042,22.6189852 7.14867652,22.6189852 9.54739081,21.2389852 L35,6.7389068 C36.5565325,5.8426568 36.5565325,3.6001568 35,2.7039068 L33.5976169,1.8976568 Z" filter="url(#a)" transform="translate(262 228)"/>
      <path d="M33.5976169,1.6938284 C31.5222403,0.497578401 28.9618571,0.497578401 26.8864805,1.6900784 L1.29476094,16.2726568 C-0.430959843,17.2664068 -0.430959843,19.7489068 1.2910012,20.7426568 L1.80232587,21.0351568 C4.19728042,22.4151568 7.14867652,22.4151568 9.54739081,21.0351568 L35,6.5350784 C36.5565325,5.6388284 36.5565325,3.3963284 35,2.5000784 L33.5976169,1.6938284 Z" transform="translate(262 228)"/>
    </g>
    <path fill="#FFF" d="M301.597617,267.897657 C299.52224,266.701407 296.961857,266.701407 294.886481,267.893907 L269.294761,282.476485 C267.56904,283.470235 267.56904,285.952735 269.291001,286.946485 L269.802326,287.238985 C272.19728,288.618985 275.148677,288.618985 277.547391,287.238985 L303,272.738907 C304.556532,271.842657 304.556532,269.600157 303,268.703907"/>
    <ellipse cx="335" cy="296.5" fill="#A197C5" fill-rule="nonzero" rx="9" ry="5.5"/>
  </g>
</svg>
